D:\Documents\paper\Opensim\Pipline\Result\dingzhejin\30DJ0001\original_data\dingzhejin_30DJ0001_grf.mot
version=1
nRows=27
nColumns=19
inDegrees=yes
endheader
time	ground_force_vx	ground_force_vy	ground_force_vz	ground_force_px	ground_force_py	ground_force_pz	1_ground_force_vx	1_ground_force_vy	1_ground_force_vz	1_ground_force_px	1_ground_force_py	1_ground_force_pz	ground_torque_x	ground_torque_y	ground_torque_z	1_ground_torque_x	1_ground_torque_y	1_ground_torque_z
7.142000e+00	-0.256297	-0.481554	0.362370	0.300000	0.000000	0.200000	-0.211889	-0.255511	-0.001075	0.300000	0.000000	0.610000	-0.000000	0.091671	-0.000000	0.000000	0.027802	-0.000000	
7.143000e+00	-0.256633	-0.483689	0.362576	0.300000	0.000000	0.200000	-0.216455	-0.257847	-0.003850	0.300000	0.000000	0.610000	-0.000000	0.091380	-0.000000	0.000000	0.028198	-0.000000	
7.144000e+00	-0.256698	-0.482910	0.362909	0.300000	0.000000	0.200000	-0.221221	-0.256941	-0.006576	0.300000	0.000000	0.610000	-0.000000	0.091131	-0.000000	0.000000	0.028567	-0.000000	
7.145000e+00	-0.255292	-0.479806	0.362697	0.300000	0.000000	0.200000	-0.225958	-0.251852	-0.007826	0.300000	0.000000	0.610000	-0.000000	0.090819	-0.000000	0.000000	0.028990	-0.000000	
7.146000e+00	-0.252378	-0.476645	0.361503	0.300000	0.000000	0.200000	-0.230338	-0.244417	-0.006807	0.300000	0.000000	0.610000	-0.000000	0.090559	-0.000000	0.000000	0.029406	-0.000000	
7.147000e+00	-0.249107	-0.475215	0.359757	0.300000	0.000000	0.200000	-0.233332	-0.238379	-0.004088	0.300000	0.000000	0.610000	-0.000000	0.090626	-0.000000	0.000000	0.029773	-0.000000	
7.148000e+00	-0.246810	-0.475242	0.358429	0.300000	0.000000	0.200000	-0.233763	-0.236592	-0.000611	0.300000	0.000000	0.610000	-0.000000	0.091247	-0.000000	0.000000	0.030193	-0.000000	
7.149000e+00	-0.245747	-0.475430	0.357841	0.300000	0.000000	0.200000	-0.231512	-0.240075	0.002800	0.300000	0.000000	0.610000	-0.000000	0.092358	-0.000000	0.000000	0.030700	-0.000000	
7.150000e+00	-0.245353	-0.475712	0.357276	0.300000	0.000000	0.200000	-0.227816	-0.248122	0.005148	0.300000	0.000000	0.610000	-0.000000	0.093500	-0.000000	0.000000	0.031159	-0.000000	
7.151000e+00	-0.245442	-0.477395	0.355666	0.300000	0.000000	0.200000	-0.224187	-0.258352	0.005556	0.300000	0.000000	0.610000	-0.000000	0.094166	-0.000000	0.000000	0.031389	-0.000000	
7.152000e+00	-0.246352	-0.480853	0.352455	0.300000	0.000000	0.200000	-0.221430	-0.268169	0.003670	0.300000	0.000000	0.610000	-0.000000	0.094252	-0.000000	0.000000	0.031251	-0.000000	
7.153000e+00	-0.248263	-0.483776	0.347928	0.300000	0.000000	0.200000	-0.219701	-0.276023	-0.000276	0.300000	0.000000	0.610000	-0.000000	0.093980	-0.000000	0.000000	0.030763	-0.000000	
7.154000e+00	-0.250912	-0.482943	0.342692	0.300000	0.000000	0.200000	-0.219016	-0.281269	-0.005313	0.300000	0.000000	0.610000	-0.000000	0.093512	-0.000000	0.000000	0.030200	-0.000000	
7.155000e+00	-0.253668	-0.477261	0.337017	0.300000	0.000000	0.200000	-0.219397	-0.283815	-0.009950	0.300000	0.000000	0.610000	-0.000000	0.092861	-0.000000	0.000000	0.029871	-0.000000	
7.156000e+00	-0.255853	-0.467662	0.330994	0.300000	0.000000	0.200000	-0.220549	-0.283874	-0.012887	0.300000	0.000000	0.610000	-0.000000	0.092130	-0.000000	0.000000	0.029830	-0.000000	
7.157000e+00	-0.257472	-0.455512	0.325130	0.300000	0.000000	0.200000	-0.221743	-0.282103	-0.013750	0.300000	0.000000	0.610000	-0.000000	0.091592	-0.000000	0.000000	0.029890	-0.000000	
7.158000e+00	-0.259243	-0.442280	0.320166	0.300000	0.000000	0.200000	-0.222124	-0.279707	-0.013584	0.300000	0.000000	0.610000	-0.000000	0.091428	-0.000000	0.000000	0.029824	-0.000000	
7.159000e+00	-0.261421	-0.429375	0.316329	0.300000	0.000000	0.200000	-0.221130	-0.278224	-0.014400	0.300000	0.000000	0.610000	-0.000000	0.091466	-0.000000	0.000000	0.029524	-0.000000	
7.160000e+00	-0.263151	-0.417919	0.313405	0.300000	0.000000	0.200000	-0.219125	-0.279514	-0.017633	0.300000	0.000000	0.610000	-0.000000	0.091313	-0.000000	0.000000	0.029025	-0.000000	
7.161000e+00	-0.263178	-0.408919	0.311373	0.300000	0.000000	0.200000	-0.217455	-0.284850	-0.023070	0.300000	0.000000	0.610000	-0.000000	0.090783	-0.000000	0.000000	0.028432	-0.000000	
7.162000e+00	-0.261007	-0.403008	0.310541	0.300000	0.000000	0.200000	-0.217435	-0.293106	-0.029188	0.300000	0.000000	0.610000	-0.000000	0.090065	-0.000000	0.000000	0.027917	-0.000000	
7.163000e+00	-0.257678	-0.399800	0.311287	0.300000	0.000000	0.200000	-0.219214	-0.300758	-0.033991	0.300000	0.000000	0.610000	-0.000000	0.089455	-0.000000	0.000000	0.027697	-0.000000	
7.164000e+00	-0.255230	-0.398329	0.313602	0.300000	0.000000	0.200000	-0.221677	-0.304445	-0.035764	0.300000	0.000000	0.610000	-0.000000	0.089117	-0.000000	0.000000	0.027845	-0.000000	
7.165000e+00	-0.255142	-0.398588	0.316925	0.300000	0.000000	0.200000	-0.223730	-0.303324	-0.033879	0.300000	0.000000	0.610000	-0.000000	0.089039	-0.000000	0.000000	0.028183	-0.000000	
7.166000e+00	-0.257518	-0.401594	0.320834	0.300000	0.000000	0.200000	-0.225216	-0.298709	-0.029298	0.300000	0.000000	0.610000	-0.000000	0.089080	-0.000000	0.000000	0.028437	-0.000000	
7.167000e+00	-0.261465	-0.407561	0.325164	0.300000	0.000000	0.200000	-0.226066	-0.292327	-0.024163	0.300000	0.000000	0.610000	-0.000000	0.089131	-0.000000	0.000000	0.028404	-0.000000	
7.168000e+00	-0.265708	-0.414943	0.329241	0.300000	0.000000	0.200000	-0.225659	-0.286220	-0.020588	0.300000	0.000000	0.610000	-0.000000	0.089194	-0.000000	0.000000	0.027977	-0.000000	
